<svg xmlns="http://www.w3.org/2000/svg" viewBox="0 0 139.53 139.46" width="14" height="14"><path d="M69.74 139.47A69.88 69.88 0 010 69.84C-.09 31.69 31.35.11 69.55 0c38.45-.11 70.34 31.76 70 69.93-.38 38.64-31.45 69.6-69.81 69.54zm38.24-121.22L93.81 62l36.9 26.78c7.38-29.1-1.22-52.11-22.73-70.53zm-53.51 71.8H8.06a29.58 29.58 0 012.93 4.43c7.76 17.52 20.62 29.6 38.77 35.68 5.79 1.94 12 2.57 19 4zM69.6 44.38l36.65-26.72c-22.64-15.54-53-15.31-73 .32zM9.54 87.95l35.85-26-14-42.61C8.12 35.61 1.04 69.12 9.54 87.95zm61.12 45.11c24.56 1.42 53.87-19.83 58.48-41.72-.11-.11-.22-.32-.33-.32-14.11-.16-28.22-.35-42.33-.35a3.83 3.83 0 00-2.67 2.28c-4.39 13.19-8.67 26.43-13.15 40.11zm-1.17-81L52.65 64.41c2.31 6.94 4.48 13.47 6.57 19.72 6.3 0 12 .2 17.58-.15a5.7 5.7 0 004.08-3c2.15-5.52 3.8-11.23 5.59-16.74zm19 6c2.73-8.41 5.32-16.39 8.32-25.76L74.88 48.2zM43.72 33.29l-.83.89 7.76 23.91 13.59-9.9zm3.63 34.92L25.81 83.84H52.4c-1.67-5.2-3.27-10.15-5.05-15.63zm14 22.71c2.72 8.39 5.23 16.09 7.73 23.79l1-.1c2.51-7.77 5-15.53 7.64-23.69zm30.46-22.8q-2.31 7.2-5 15.47h26z"/></svg>