<?xml version="1.0" encoding="utf-8"?>
<!-- Generator: Adobe Illustrator 23.1.1, SVG Export Plug-In . SVG Version: 6.00 Build 0)  -->
<svg version="1.1" id="Layer_1" xmlns="http://www.w3.org/2000/svg" xmlns:xlink="http://www.w3.org/1999/xlink" x="0px" y="0px"
	 width="850px" height="450px" viewBox="0 0 850 450" style="enable-background:new 0 0 850 450;" xml:space="preserve">
<style type="text/css">
	.st0{fill:#EDF7F4;}
	.st1{fill:none;stroke:#1C2321;stroke-width:9;stroke-linecap:round;stroke-linejoin:round;stroke-miterlimit:10;}
	.st2{fill:#1C2321;}
	.st3{fill:#49B293;}
</style>
<rect class="st0" width="850" height="450"/>
<g>
	<g>
		<polyline class="st1" points="678.02,327.86 708.12,357.95 678.02,388.04 		"/>
		<line class="st1" x1="708.12" y1="357.95" x2="144.95" y2="357.95"/>
	</g>
	<g>
		<g>
			<path class="st2" d="M146.59,329.21v6.31h-3.57v-15.09h3.57v5.75h3.66v-5.75h3.57v15.09h-3.57v-6.31H146.59z"/>
			<path class="st2" d="M166.49,333.18v2.35h-9.67v-2.35h3.27v-6.86h-3.16v-2.35h6.6v9.21H166.49z M163.48,319.85
				c0,1.11-0.85,1.94-2.02,1.94c-1.2,0-2.05-0.83-2.05-1.94c0-1.09,0.85-1.94,2.05-1.94C162.63,317.91,163.48,318.76,163.48,319.85z
				"/>
			<path class="st2" d="M180.6,324.64c-0.81,0.33-1.87,0.46-3.33,0.46c1.46,0.63,2.24,1.48,2.24,2.98c0,2.24-1.92,3.88-4.9,3.88
				c-0.5,0-0.94-0.04-1.35-0.15c-0.24,0.15-0.37,0.41-0.37,0.67c0,0.35,0.15,0.7,1.26,0.7h1.92c2.68,0,4.4,1.42,4.4,3.35
				c0,2.37-2.09,3.83-6.18,3.83c-4.44,0-5.6-1.44-5.6-3.72h3.05c0,1.02,0.44,1.46,2.63,1.46c2.18,0,2.68-0.57,2.68-1.33
				c0-0.7-0.52-1.15-1.68-1.15h-1.83c-2.53,0-3.57-1.07-3.57-2.31c0-0.83,0.48-1.66,1.31-2.18c-1.48-0.78-2.07-1.81-2.07-3.31
				c0-2.61,2.13-4.22,5.16-4.22c2.57,0.07,4.05-0.65,5.44-1.48L180.6,324.64z M172.67,327.78c0,1.26,0.72,1.98,1.79,1.98
				c1.15,0,1.76-0.67,1.76-2.02c0-1.31-0.59-1.89-1.76-1.89C173.37,325.84,172.67,326.58,172.67,327.78z"/>
			<path class="st2" d="M186.04,325.12c0.98-1.04,2.11-1.55,3.4-1.55c2.05,0,3.18,1.26,3.18,3.46v8.49h-3.44V328
				c0-1.39-0.26-1.87-1.11-1.87c-0.74,0-1.37,0.52-2.03,1.39v8.01h-3.44v-16.16l3.44-0.35V325.12z"/>
			<path class="st2" d="M198.65,330.76c0.24,1.89,1.31,2.63,2.79,2.63c1.04,0,2.05-0.37,2.9-1.04l1.44,1.96
				c-1.09,0.94-2.66,1.59-4.62,1.59c-3.96,0-6.01-2.55-6.01-6.14c0-3.42,2-6.18,5.6-6.18c3.35,0,5.47,2.22,5.47,5.94
				c0,0.39-0.02,0.89-0.07,1.24H198.65z M198.6,328.67h4.25c-0.02-1.68-0.59-2.79-2.07-2.79
				C199.54,325.88,198.76,326.75,198.6,328.67z"/>
			<path class="st2" d="M215.28,332.35c0-0.74-0.44-1.02-2.74-1.66c-2.11-0.57-3.57-1.48-3.57-3.53c0-2.07,1.76-3.59,5.01-3.59
				c2.05,0,3.55,0.59,4.68,1.42l-1.37,2.03c-0.96-0.59-2.09-0.98-3.2-0.98c-1.13,0-1.65,0.28-1.65,0.89c0,0.59,0.46,0.85,2.72,1.5
				c2.24,0.63,3.7,1.39,3.7,3.64c0,2.55-2.53,3.83-5.47,3.83c-2.24,0-3.94-0.7-5.14-1.74l1.72-1.94c0.89,0.7,2.05,1.22,3.4,1.22
				C214.52,333.44,215.28,333.09,215.28,332.35z"/>
			<path class="st2" d="M232.2,334.85c-0.91,0.59-2.2,1.04-3.79,1.04c-3.03,0-4.46-1.66-4.46-4.31v-5.25h-2.42v-2.37h2.42v-2.5
				l3.44-0.41v2.92h3.72l-0.35,2.37h-3.38v5.25c0,1.15,0.5,1.59,1.63,1.59c0.83,0,1.5-0.22,2.05-0.52L232.2,334.85z"/>
		</g>
	</g>
	<g>
		<g>
			<path class="st3" d="M268.33,270.03H148.71c-2.08,0-3.76-1.68-3.76-3.76V122.14c0-2.08,1.68-3.76,3.76-3.76h119.62
				c2.08,0,3.76,1.68,3.76,3.76v144.13C272.1,268.35,270.41,270.03,268.33,270.03z"/>
			<g>
				<path class="st2" d="M215.99,220.82h15.71v10.04h-43.35v-10.04h15.71v-37.19h-15.71v-10.14h15.71v-12.03h11.93V220.82z"/>
			</g>
		</g>
		<g>
			<g>
				<path class="st2" d="M192.26,88.06v0.83h-4.98v-0.83h2.06v-5h-2v-0.82h3.05v5.82H192.26z M190.31,79.86
					c0,0.43-0.3,0.75-0.77,0.75c-0.46,0-0.76-0.32-0.76-0.75c0-0.42,0.3-0.75,0.76-0.75C190.01,79.11,190.31,79.44,190.31,79.86z"/>
				<path class="st2" d="M195.51,82.24l0.08,0.92c0.54-0.68,1.42-1.08,2.2-1.08c1.3,0,1.87,0.73,1.87,1.97v4.83h-1.05v-4.05
					c0-1.37-0.13-1.92-1.14-1.92c-0.8,0-1.47,0.59-1.81,1.11v4.86h-1.05v-6.65H195.51z"/>
				<path class="st2" d="M204.79,87.26c0,0.66,0.46,0.9,1.1,0.9c0.4,0,0.76-0.09,1.13-0.23l0.28,0.76c-0.35,0.19-0.9,0.34-1.58,0.34
					c-1.16,0-1.97-0.68-1.97-1.83v-6.82h-2.05v-0.83h3.1V87.26z"/>
				<path class="st2" d="M215.04,88.06v0.83h-4.98v-0.83h2.06v-5h-2v-0.82h3.05v5.82H215.04z M213.09,79.86
					c0,0.43-0.3,0.75-0.77,0.75c-0.46,0-0.76-0.32-0.76-0.75c0-0.42,0.3-0.75,0.76-0.75C212.78,79.11,213.09,79.44,213.09,79.86z"/>
				<path class="st2" d="M218.29,82.24l0.08,0.92c0.54-0.68,1.42-1.08,2.2-1.08c1.3,0,1.87,0.73,1.87,1.97v4.83h-1.05v-4.05
					c0-1.37-0.13-1.92-1.14-1.92c-0.8,0-1.47,0.59-1.81,1.11v4.86h-1.05v-6.65H218.29z"/>
				<path class="st2" d="M225.81,85.93c0.05,1.56,0.92,2.23,1.95,2.23c0.61,0,1.2-0.15,1.78-0.62l0.49,0.72
					c-0.62,0.48-1.45,0.77-2.28,0.77c-1.95,0-3.05-1.39-3.05-3.47c0-2.01,1.14-3.48,2.86-3.48c1.72,0,2.75,1.25,2.75,3.28
					c0,0.23-0.01,0.43-0.03,0.57H225.81z M225.81,85.12h3.49c-0.03-1.43-0.67-2.16-1.72-2.16C226.63,82.96,225.9,83.65,225.81,85.12
					z"/>
			</g>
		</g>
	</g>
	<g>
		<g>
			<path class="st3" d="M413.67,270.03H294.05c-2.08,0-3.76-1.68-3.76-3.76V122.14c0-2.08,1.68-3.76,3.76-3.76h119.62
				c2.08,0,3.76,1.68,3.76,3.76v144.13C417.44,268.35,415.75,270.03,413.67,270.03z"/>
			<g>
				<path class="st2" d="M353.71,159.96c4.84,0,9.11,0.93,12.83,2.78c3.71,1.86,6.83,4.41,9.35,7.66c2.52,3.25,4.42,7.08,5.72,11.49
					c1.29,4.41,1.94,9.13,1.94,14.17c0,5.24-0.66,10.09-1.99,14.57c-1.33,4.47-3.28,8.35-5.87,11.63s-5.73,5.85-9.45,7.71
					c-3.71,1.85-7.96,2.78-12.73,2.78c-4.84,0-9.1-0.93-12.78-2.78c-3.68-1.86-6.78-4.41-9.3-7.66c-2.52-3.25-4.42-7.08-5.72-11.49
					c-1.29-4.41-1.94-9.13-1.94-14.17c0-5.24,0.66-10.09,1.99-14.57c1.33-4.47,3.26-8.35,5.82-11.63c2.55-3.28,5.68-5.85,9.4-7.71
					C344.7,160.89,348.94,159.96,353.71,159.96z M353.71,170c-2.78,0-5.19,0.53-7.21,1.59c-2.02,1.06-3.7,2.4-5.02,4.03
					c-1.33,1.62-2.39,3.46-3.18,5.52c-0.8,2.06-1.41,4.06-1.84,6.02c-0.43,1.96-0.7,3.78-0.8,5.47c-0.1,1.69-0.15,3.03-0.15,4.03
					c0,0.66,0.03,1.53,0.1,2.59c0.06,1.06,0.18,2.2,0.35,3.43c0.17,1.23,0.4,2.54,0.7,3.93c0.3,1.39,0.71,2.78,1.24,4.18
					l26.65-36.59c-1.33-1.33-2.87-2.35-4.62-3.08C358.17,170.37,356.1,170,353.71,170z M353.51,222.61c2.85,0,5.27-0.53,7.26-1.59
					c1.99-1.06,3.65-2.4,4.97-4.03c1.33-1.62,2.39-3.45,3.18-5.47c0.8-2.02,1.41-4.03,1.84-6.02c0.43-1.99,0.7-3.81,0.8-5.47
					c0.1-1.66,0.15-2.98,0.15-3.98c0-1.33-0.12-3.23-0.35-5.72c-0.23-2.49-0.81-5.05-1.74-7.71l-26.45,36.29
					c1.26,1.13,2.73,2.02,4.42,2.68C349.29,222.27,351.26,222.61,353.51,222.61z"/>
			</g>
		</g>
		<g>
			<g>
				<path class="st2" d="M350.61,81.05v6.97h1.95v0.87h-4.98v-0.87h1.95v-6.97h-1.95v-0.86h4.98v0.86H350.61z"/>
				<path class="st2" d="M356.91,88.89h-1.99v-8.7h1.85c2.04,0,4.07,0.68,4.07,4.3C360.84,88.15,358.72,88.89,356.91,88.89z
					 M357.04,81.07H356v6.94h1.05c1.25,0,2.64-0.63,2.64-3.53C359.69,81.45,358.24,81.07,357.04,81.07z"/>
			</g>
		</g>
	</g>
	<g>
		<g>
			<path class="st3" d="M559.01,270.03H439.39c-2.08,0-3.76-1.68-3.76-3.76V122.14c0-2.08,1.68-3.76,3.76-3.76h119.62
				c2.08,0,3.76,1.68,3.76,3.76v144.13C562.78,268.35,561.09,270.03,559.01,270.03z"/>
			<g>
				<path class="st2" d="M499.05,159.96c4.84,0,9.11,0.93,12.83,2.78c3.71,1.86,6.83,4.41,9.35,7.66c2.52,3.25,4.42,7.08,5.72,11.49
					c1.29,4.41,1.94,9.13,1.94,14.17c0,5.24-0.66,10.09-1.99,14.57c-1.33,4.47-3.28,8.35-5.87,11.63c-2.59,3.28-5.74,5.85-9.45,7.71
					c-3.71,1.85-7.96,2.78-12.73,2.78c-4.84,0-9.1-0.93-12.78-2.78c-3.68-1.86-6.78-4.41-9.3-7.66c-2.52-3.25-4.42-7.08-5.72-11.49
					c-1.29-4.41-1.94-9.13-1.94-14.17c0-5.24,0.66-10.09,1.99-14.57s3.26-8.35,5.82-11.63c2.55-3.28,5.68-5.85,9.4-7.71
					C490.04,160.89,494.28,159.96,499.05,159.96z M499.05,170c-2.78,0-5.19,0.53-7.21,1.59c-2.02,1.06-3.7,2.4-5.02,4.03
					c-1.33,1.62-2.39,3.46-3.18,5.52c-0.79,2.06-1.41,4.06-1.84,6.02c-0.43,1.96-0.7,3.78-0.8,5.47s-0.15,3.03-0.15,4.03
					c0,0.66,0.03,1.53,0.1,2.59c0.07,1.06,0.18,2.2,0.35,3.43c0.17,1.23,0.4,2.54,0.7,3.93c0.3,1.39,0.71,2.78,1.24,4.18
					l26.65-36.59c-1.33-1.33-2.87-2.35-4.62-3.08C503.51,170.37,501.44,170,499.05,170z M498.85,222.61c2.85,0,5.27-0.53,7.26-1.59
					c1.99-1.06,3.64-2.4,4.97-4.03c1.33-1.62,2.39-3.45,3.18-5.47c0.8-2.02,1.41-4.03,1.84-6.02c0.43-1.99,0.7-3.81,0.8-5.47
					c0.1-1.66,0.15-2.98,0.15-3.98c0-1.33-0.12-3.23-0.35-5.72c-0.23-2.49-0.81-5.05-1.74-7.71l-26.45,36.29
					c1.26,1.13,2.73,2.02,4.42,2.68C494.63,222.27,496.6,222.61,498.85,222.61z"/>
			</g>
		</g>
		<g>
			<g>
				<path class="st2" d="M474.85,71.32l0.51,0.73c-0.58,0.49-1.47,0.8-2.25,0.8c-1.99,0-3.11-1.35-3.11-3.44c0-2,1.14-3.5,3.12-3.5
					c0.86,0,1.59,0.27,2.23,0.78l-0.53,0.72c-0.56-0.42-1.11-0.62-1.71-0.62c-1.15,0-1.97,0.86-1.97,2.62
					c0,1.78,0.83,2.54,1.97,2.54C473.79,71.96,474.36,71.72,474.85,71.32z"/>
				<path class="st2" d="M480.28,71.08c0,0.66,0.46,0.9,1.1,0.9c0.4,0,0.76-0.09,1.12-0.23l0.28,0.76c-0.35,0.19-0.9,0.34-1.58,0.34
					c-1.16,0-1.97-0.68-1.97-1.83V64.2h-2.05v-0.83h3.1V71.08z"/>
				<path class="st2" d="M490.05,71.27c0,0.53,0.18,0.73,0.54,0.85l-0.25,0.75c-0.57-0.08-1.03-0.35-1.21-0.95
					c-0.48,0.62-1.23,0.94-2.09,0.94c-1.34,0-2.15-0.81-2.15-2.05c0-1.37,1.1-2.14,3.12-2.14h0.97v-0.56c0-0.96-0.59-1.32-1.58-1.32
					c-0.44,0-1.05,0.09-1.73,0.33l-0.28-0.78c0.81-0.3,1.52-0.43,2.16-0.43c1.66,0,2.49,0.83,2.49,2.15V71.27z M488.99,71.11v-1.72
					h-0.96c-1.48,0-2.01,0.54-2.01,1.4c0,0.83,0.42,1.27,1.29,1.27C487.96,72.06,488.59,71.72,488.99,71.11z"/>
				<path class="st2" d="M496.81,70.93c0-0.61-0.2-0.94-1.61-1.29c-1.39-0.34-2.28-0.75-2.28-1.91c0-1.11,1.02-1.82,2.52-1.82
					c1.08,0,1.86,0.33,2.42,0.75l-0.47,0.71c-0.49-0.34-1.06-0.59-1.92-0.59c-1.06,0-1.46,0.37-1.46,0.87
					c0,0.61,0.42,0.81,1.77,1.18c1.3,0.35,2.16,0.81,2.16,2.06c0,1.42-1.38,1.97-2.81,1.97c-1.2,0-2.02-0.4-2.59-0.9l0.59-0.68
					c0.52,0.43,1.23,0.72,2.01,0.72C496.17,71.99,496.81,71.58,496.81,70.93z"/>
				<path class="st2" d="M504.4,70.93c0-0.61-0.2-0.94-1.61-1.29c-1.39-0.34-2.28-0.75-2.28-1.91c0-1.11,1.02-1.82,2.52-1.82
					c1.08,0,1.86,0.33,2.42,0.75l-0.47,0.71c-0.49-0.34-1.06-0.59-1.92-0.59c-1.06,0-1.46,0.37-1.46,0.87
					c0,0.61,0.42,0.81,1.77,1.18c1.3,0.35,2.16,0.81,2.16,2.06c0,1.42-1.38,1.97-2.81,1.97c-1.2,0-2.02-0.4-2.59-0.9l0.59-0.68
					c0.52,0.43,1.23,0.72,2.01,0.72C503.77,71.99,504.4,71.58,504.4,70.93z"/>
				<path class="st2" d="M508.89,69.75c0.05,1.56,0.92,2.23,1.95,2.23c0.61,0,1.2-0.15,1.78-0.62l0.49,0.72
					c-0.62,0.48-1.46,0.77-2.28,0.77c-1.95,0-3.05-1.39-3.05-3.47c0-2.01,1.14-3.48,2.86-3.48c1.72,0,2.75,1.25,2.75,3.28
					c0,0.23-0.01,0.43-0.03,0.57H508.89z M508.89,68.95h3.49c-0.03-1.43-0.67-2.16-1.72-2.16
					C509.72,66.78,508.98,67.48,508.89,68.95z"/>
				<path class="st2" d="M519.58,70.93c0-0.61-0.2-0.94-1.61-1.29c-1.39-0.34-2.28-0.75-2.28-1.91c0-1.11,1.02-1.82,2.52-1.82
					c1.08,0,1.86,0.33,2.42,0.75l-0.47,0.71c-0.49-0.34-1.06-0.59-1.92-0.59c-1.06,0-1.46,0.37-1.46,0.87
					c0,0.61,0.42,0.81,1.77,1.18c1.3,0.35,2.16,0.81,2.16,2.06c0,1.42-1.38,1.97-2.81,1.97c-1.2,0-2.02-0.4-2.59-0.9l0.59-0.68
					c0.52,0.43,1.23,0.72,2.01,0.72C518.95,71.99,519.58,71.58,519.58,70.93z"/>
				<path class="st2" d="M526.8,71.65c0,0.3-0.06,0.59-0.25,0.97l-1.02,2.35h-0.95l0.61-2.49c-0.25-0.19-0.42-0.51-0.42-0.83
					c0-0.56,0.44-1.01,1.01-1.01C526.36,70.64,526.8,71.1,526.8,71.65z"/>
				<path class="st2" d="M463.48,86.46c0,0.53,0.18,0.73,0.54,0.85l-0.25,0.75c-0.57-0.08-1.02-0.35-1.21-0.95
					c-0.48,0.62-1.23,0.94-2.09,0.94c-1.34,0-2.15-0.81-2.15-2.05c0-1.37,1.1-2.14,3.12-2.14h0.97V83.3c0-0.96-0.59-1.32-1.58-1.32
					c-0.44,0-1.05,0.09-1.73,0.33l-0.28-0.78c0.81-0.3,1.52-0.43,2.16-0.43c1.66,0,2.49,0.83,2.49,2.15V86.46z M462.41,86.29v-1.72
					h-0.96c-1.48,0-2.01,0.54-2.01,1.4c0,0.83,0.42,1.27,1.29,1.27C461.39,87.24,462.02,86.9,462.41,86.29z"/>
				<path class="st2" d="M471.59,87.57c-0.46,0.29-1.16,0.47-1.78,0.47c-1.42,0-2.23-0.82-2.23-2v-3.98h-1.53v-0.81h1.53v-1.52
					l1.05-0.13v1.64h2.3l-0.13,0.81h-2.18v3.97c0,0.75,0.35,1.14,1.28,1.14c0.49,0,0.91-0.13,1.28-0.32L471.59,87.57z"/>
				<path class="st2" d="M479.18,87.57c-0.46,0.29-1.16,0.47-1.78,0.47c-1.42,0-2.23-0.82-2.23-2v-3.98h-1.53v-0.81h1.53v-1.52
					l1.05-0.13v1.64h2.3l-0.13,0.81h-2.18v3.97c0,0.75,0.35,1.14,1.28,1.14c0.49,0,0.91-0.13,1.28-0.32L479.18,87.57z"/>
				<path class="st2" d="M481.41,87.06h1.56v-5h-1.56v-0.82h2.47l0.13,1.28c0.39-0.95,1.13-1.43,1.92-1.43
					c0.33,0,0.56,0.03,0.87,0.1l-0.19,1.04c-0.29-0.08-0.49-0.11-0.77-0.11c-0.9,0-1.59,0.87-1.82,1.8v3.15h1.87v0.83h-4.48V87.06z"
					/>
				<path class="st2" d="M494.33,87.06v0.83h-4.98v-0.83h2.06v-5h-2v-0.82h3.05v5.82H494.33z M492.38,78.87
					c0,0.43-0.3,0.75-0.77,0.75c-0.46,0-0.76-0.32-0.76-0.75c0-0.42,0.3-0.75,0.76-0.75C492.08,78.12,492.38,78.45,492.38,78.87z"/>
				<path class="st2" d="M497.73,82.11c0.48-0.65,1.14-1.01,1.9-1.01c1.78,0,2.5,1.38,2.5,3.47c0,2.02-0.92,3.48-2.64,3.48
					c-0.77,0-1.37-0.25-1.81-0.83l-0.08,0.7h-0.92v-9.35l1.05-0.13V82.11z M500.98,84.56c0-1.75-0.54-2.62-1.58-2.62
					c-0.75,0-1.32,0.54-1.67,1.08v3.31c0.35,0.53,0.9,0.86,1.52,0.86C500.36,87.19,500.98,86.34,500.98,84.56z"/>
				<path class="st2" d="M505.32,85.96c0,0.87,0.35,1.24,1.13,1.24c0.73,0,1.46-0.49,1.81-1.06v-4.9h1.05v6.65h-0.9l-0.09-0.9
					c-0.52,0.67-1.35,1.04-2.12,1.04c-1.29,0-1.92-0.72-1.92-1.95v-4.84h1.05V85.96z"/>
				<path class="st2" d="M517.14,87.57c-0.46,0.29-1.16,0.47-1.78,0.47c-1.42,0-2.23-0.82-2.23-2v-3.98h-1.53v-0.81h1.53v-1.52
					l1.05-0.13v1.64h2.3l-0.13,0.81h-2.18v3.97c0,0.75,0.35,1.14,1.28,1.14c0.49,0,0.91-0.13,1.28-0.32L517.14,87.57z"/>
				<path class="st2" d="M520.28,84.94c0.05,1.56,0.92,2.23,1.95,2.23c0.61,0,1.2-0.15,1.78-0.62l0.49,0.72
					c-0.62,0.48-1.46,0.77-2.28,0.77c-1.95,0-3.05-1.39-3.05-3.47c0-2.01,1.14-3.48,2.86-3.48c1.72,0,2.75,1.25,2.75,3.28
					c0,0.23-0.01,0.43-0.03,0.57H520.28z M520.28,84.13h3.49c-0.03-1.43-0.67-2.16-1.72-2.16C521.1,81.97,520.37,82.66,520.28,84.13
					z"/>
				<path class="st2" d="M530.97,86.12c0-0.61-0.2-0.94-1.61-1.29c-1.39-0.34-2.28-0.75-2.28-1.91c0-1.11,1.02-1.82,2.52-1.82
					c1.08,0,1.86,0.33,2.42,0.75l-0.47,0.71c-0.49-0.34-1.06-0.59-1.92-0.59c-1.06,0-1.46,0.37-1.46,0.87
					c0,0.61,0.42,0.81,1.77,1.18c1.3,0.35,2.16,0.81,2.16,2.06c0,1.42-1.38,1.97-2.81,1.97c-1.2,0-2.02-0.4-2.59-0.9l0.59-0.68
					c0.52,0.43,1.23,0.72,2.01,0.72C530.34,87.18,530.97,86.76,530.97,86.12z"/>
				<path class="st2" d="M538.19,86.84c0,0.3-0.06,0.59-0.25,0.97l-1.02,2.35h-0.95l0.61-2.49c-0.25-0.19-0.42-0.51-0.42-0.83
					c0-0.56,0.44-1.01,1.01-1.01C537.74,85.83,538.19,86.28,538.19,86.84z"/>
				<path class="st2" d="M452.71,99.75c0,2.02-0.83,3.48-2.57,3.48c-0.72,0-1.32-0.25-1.76-0.76v3.17l-1.05,0.13v-9.34h0.88
					l0.09,0.92c0.49-0.68,1.19-1.08,2-1.08C452.08,96.28,452.71,97.66,452.71,99.75z M448.38,98.2v3.31
					c0.34,0.52,0.9,0.83,1.53,0.83c1.11,0,1.67-0.82,1.67-2.61c0-1.75-0.48-2.62-1.53-2.62C449.3,97.13,448.74,97.67,448.38,98.2z"
					/>
				<path class="st2" d="M458.84,101.3c0-0.61-0.2-0.94-1.61-1.29c-1.39-0.34-2.28-0.75-2.28-1.91c0-1.11,1.02-1.82,2.52-1.82
					c1.08,0,1.86,0.33,2.42,0.75l-0.47,0.71c-0.49-0.34-1.06-0.59-1.92-0.59c-1.06,0-1.45,0.37-1.45,0.87
					c0,0.61,0.42,0.81,1.77,1.18c1.3,0.35,2.16,0.81,2.16,2.06c0,1.42-1.38,1.97-2.81,1.97c-1.2,0-2.02-0.4-2.59-0.9l0.59-0.68
					c0.52,0.43,1.23,0.72,2.01,0.72C458.21,102.36,458.84,101.95,458.84,101.3z"/>
				<path class="st2" d="M463.34,100.13c0.05,1.56,0.92,2.23,1.95,2.23c0.61,0,1.2-0.15,1.78-0.62l0.49,0.72
					c-0.62,0.48-1.46,0.77-2.28,0.77c-1.95,0-3.05-1.39-3.05-3.47c0-2.01,1.14-3.48,2.86-3.48c1.72,0,2.75,1.25,2.75,3.28
					c0,0.23-0.01,0.43-0.03,0.57H463.34z M463.34,99.32h3.49c-0.03-1.43-0.67-2.16-1.72-2.16
					C464.16,97.15,463.43,97.85,463.34,99.32z"/>
				<path class="st2" d="M471.16,101.15c0,0.87,0.35,1.24,1.13,1.24c0.73,0,1.46-0.49,1.81-1.06v-4.9h1.05v6.65h-0.9l-0.09-0.9
					c-0.52,0.67-1.35,1.04-2.12,1.04c-1.29,0-1.92-0.72-1.92-1.95v-4.84h1.05V101.15z"/>
				<path class="st2" d="M482.74,103.09h-0.92l-0.1-0.87c-0.49,0.7-1.15,1.01-1.88,1.01c-1.75,0-2.54-1.39-2.54-3.45
					c0-2.01,0.97-3.49,2.62-3.49c0.76,0,1.34,0.28,1.78,0.8v-3.47l1.05,0.13V103.09z M478.44,99.76c0,1.73,0.56,2.62,1.61,2.62
					c0.76,0,1.29-0.51,1.64-1.05v-3.34c-0.35-0.53-0.9-0.86-1.52-0.86C479.05,97.13,478.44,98,478.44,99.76z"/>
				<path class="st2" d="M490.67,99.75c0,2.04-1,3.48-2.86,3.48c-1.87,0-2.86-1.37-2.86-3.47c0-2.05,1-3.48,2.87-3.48
					S490.67,97.65,490.67,99.75z M486.08,99.76c0,1.77,0.58,2.61,1.73,2.61s1.73-0.83,1.73-2.62c0-1.77-0.58-2.61-1.72-2.61
					C486.67,97.14,486.08,97.98,486.08,99.76z"/>
				<path class="st2" d="M497.62,98.67v0.91h-4.43v-0.91H497.62z"/>
				<path class="st2" d="M505.22,101.69l0.51,0.73c-0.58,0.49-1.47,0.8-2.25,0.8c-1.99,0-3.11-1.35-3.11-3.44c0-2,1.14-3.5,3.12-3.5
					c0.86,0,1.59,0.27,2.23,0.78l-0.53,0.72c-0.56-0.42-1.11-0.62-1.71-0.62c-1.15,0-1.97,0.86-1.97,2.62
					c0,1.78,0.83,2.54,1.97,2.54C504.16,102.33,504.73,102.09,505.22,101.69z"/>
				<path class="st2" d="M510.65,101.45c0,0.66,0.46,0.9,1.1,0.9c0.4,0,0.76-0.09,1.12-0.23l0.28,0.76
					c-0.35,0.19-0.9,0.34-1.58,0.34c-1.16,0-1.97-0.68-1.97-1.83v-6.82h-2.05v-0.83h3.1V101.45z"/>
				<path class="st2" d="M520.42,101.64c0,0.53,0.18,0.73,0.54,0.85l-0.25,0.75c-0.57-0.08-1.03-0.35-1.21-0.95
					c-0.48,0.62-1.23,0.94-2.09,0.94c-1.34,0-2.15-0.81-2.15-2.05c0-1.37,1.1-2.14,3.12-2.14h0.97v-0.56c0-0.96-0.59-1.32-1.58-1.32
					c-0.44,0-1.05,0.09-1.73,0.33l-0.28-0.78c0.81-0.3,1.52-0.43,2.16-0.43c1.66,0,2.49,0.83,2.49,2.15V101.64z M519.36,101.48
					v-1.72h-0.96c-1.48,0-2.01,0.54-2.01,1.4c0,0.83,0.42,1.27,1.29,1.27C518.33,102.43,518.97,102.09,519.36,101.48z"/>
				<path class="st2" d="M527.18,101.3c0-0.61-0.2-0.94-1.61-1.29c-1.39-0.34-2.28-0.75-2.28-1.91c0-1.11,1.02-1.82,2.52-1.82
					c1.08,0,1.86,0.33,2.42,0.75l-0.47,0.71c-0.49-0.34-1.06-0.59-1.92-0.59c-1.06,0-1.46,0.37-1.46,0.87
					c0,0.61,0.42,0.81,1.77,1.18c1.3,0.35,2.16,0.81,2.16,2.06c0,1.42-1.38,1.97-2.81,1.97c-1.2,0-2.02-0.4-2.59-0.9l0.59-0.68
					c0.52,0.43,1.23,0.72,2.01,0.72C526.54,102.36,527.18,101.95,527.18,101.3z"/>
				<path class="st2" d="M534.77,101.3c0-0.61-0.2-0.94-1.61-1.29c-1.39-0.34-2.28-0.75-2.28-1.91c0-1.11,1.02-1.82,2.52-1.82
					c1.08,0,1.86,0.33,2.42,0.75l-0.47,0.71c-0.49-0.34-1.06-0.59-1.92-0.59c-1.06,0-1.46,0.37-1.46,0.87
					c0,0.61,0.42,0.81,1.77,1.18c1.3,0.35,2.16,0.81,2.16,2.06c0,1.42-1.38,1.97-2.81,1.97c-1.2,0-2.02-0.4-2.59-0.9l0.59-0.68
					c0.52,0.43,1.23,0.72,2.01,0.72C534.14,102.36,534.77,101.95,534.77,101.3z"/>
				<path class="st2" d="M539.26,100.13c0.05,1.56,0.92,2.23,1.95,2.23c0.61,0,1.2-0.15,1.78-0.62l0.49,0.72
					c-0.62,0.48-1.46,0.77-2.28,0.77c-1.95,0-3.05-1.39-3.05-3.47c0-2.01,1.14-3.48,2.86-3.48c1.72,0,2.75,1.25,2.75,3.28
					c0,0.23-0.01,0.43-0.03,0.57H539.26z M539.26,99.32h3.49c-0.03-1.43-0.67-2.16-1.72-2.16
					C540.09,97.15,539.35,97.85,539.26,99.32z"/>
				<path class="st2" d="M549.96,101.3c0-0.61-0.2-0.94-1.61-1.29c-1.39-0.34-2.28-0.75-2.28-1.91c0-1.11,1.02-1.82,2.52-1.82
					c1.08,0,1.86,0.33,2.42,0.75l-0.47,0.71c-0.49-0.34-1.06-0.59-1.92-0.59c-1.06,0-1.46,0.37-1.46,0.87
					c0,0.61,0.42,0.81,1.77,1.18c1.3,0.35,2.16,0.81,2.16,2.06c0,1.42-1.38,1.97-2.81,1.97c-1.2,0-2.02-0.4-2.59-0.9l0.59-0.68
					c0.52,0.43,1.23,0.72,2.01,0.72C549.32,102.36,549.96,101.95,549.96,101.3z"/>
			</g>
		</g>
	</g>
	<g>
		<g>
			<path class="st3" d="M704.35,270.8H584.73c-2.08,0-3.76-1.68-3.76-3.76V122.9c0-2.08,1.68-3.76,3.76-3.76h119.62
				c2.08,0,3.76,1.68,3.76,3.76v144.13C708.12,269.11,706.43,270.8,704.35,270.8z"/>
			<g>
				<path class="st2" d="M644.39,160.73c4.84,0,9.11,0.93,12.83,2.78c3.71,1.86,6.83,4.41,9.35,7.66c2.52,3.25,4.42,7.08,5.72,11.49
					c1.29,4.41,1.94,9.13,1.94,14.17c0,5.24-0.66,10.09-1.99,14.57c-1.33,4.47-3.28,8.35-5.87,11.63c-2.59,3.28-5.74,5.85-9.45,7.71
					c-3.71,1.85-7.96,2.78-12.73,2.78c-4.84,0-9.1-0.93-12.78-2.78c-3.68-1.86-6.78-4.41-9.3-7.66c-2.52-3.25-4.42-7.08-5.72-11.49
					c-1.29-4.41-1.94-9.13-1.94-14.17c0-5.24,0.66-10.09,1.99-14.57s3.26-8.35,5.82-11.63c2.55-3.28,5.68-5.85,9.4-7.71
					C635.38,161.65,639.62,160.73,644.39,160.73z M644.39,170.77c-2.78,0-5.19,0.53-7.21,1.59c-2.02,1.06-3.7,2.4-5.02,4.03
					c-1.33,1.62-2.39,3.46-3.18,5.52c-0.79,2.06-1.41,4.06-1.84,6.02c-0.43,1.96-0.7,3.78-0.8,5.47s-0.15,3.03-0.15,4.03
					c0,0.66,0.03,1.53,0.1,2.59c0.07,1.06,0.18,2.2,0.35,3.43c0.17,1.23,0.4,2.54,0.7,3.93c0.3,1.39,0.71,2.78,1.24,4.18
					l26.65-36.59c-1.33-1.33-2.87-2.35-4.62-3.08C648.85,171.13,646.78,170.77,644.39,170.77z M644.19,223.37
					c2.85,0,5.27-0.53,7.26-1.59c1.99-1.06,3.64-2.4,4.97-4.03c1.33-1.62,2.39-3.45,3.18-5.47c0.8-2.02,1.41-4.03,1.84-6.02
					c0.43-1.99,0.7-3.81,0.8-5.47c0.1-1.66,0.15-2.98,0.15-3.98c0-1.33-0.12-3.23-0.35-5.72c-0.23-2.49-0.81-5.05-1.74-7.71
					l-26.45,36.29c1.26,1.13,2.73,2.02,4.42,2.68C639.97,223.04,641.94,223.37,644.19,223.37z"/>
			</g>
		</g>
		<g>
			<g>
				<path class="st2" d="M612.47,70.52c0.05,1.56,0.92,2.23,1.95,2.23c0.61,0,1.2-0.15,1.78-0.62l0.49,0.72
					c-0.62,0.48-1.46,0.77-2.28,0.77c-1.95,0-3.05-1.39-3.05-3.47c0-2.01,1.14-3.48,2.86-3.48c1.72,0,2.75,1.25,2.75,3.28
					c0,0.23-0.01,0.43-0.03,0.57H612.47z M612.47,69.71h3.49c-0.03-1.43-0.67-2.16-1.72-2.16C613.3,67.55,612.56,68.24,612.47,69.71
					z"/>
				<path class="st2" d="M621.83,71.85c0,0.66,0.46,0.9,1.1,0.9c0.4,0,0.76-0.09,1.12-0.23l0.28,0.76c-0.35,0.19-0.9,0.34-1.58,0.34
					c-1.16,0-1.97-0.68-1.97-1.83v-6.82h-2.05v-0.83h3.1V71.85z"/>
				<path class="st2" d="M627.66,70.52c0.05,1.56,0.92,2.23,1.95,2.23c0.61,0,1.2-0.15,1.78-0.62l0.49,0.72
					c-0.62,0.48-1.46,0.77-2.28,0.77c-1.95,0-3.05-1.39-3.05-3.47c0-2.01,1.14-3.48,2.86-3.48c1.72,0,2.75,1.25,2.75,3.28
					c0,0.23-0.01,0.43-0.03,0.57H627.66z M627.66,69.71h3.49c-0.03-1.43-0.67-2.16-1.72-2.16
					C628.48,67.55,627.75,68.24,627.66,69.71z"/>
				<path class="st2" d="M640.1,68.52v4.96h-0.97V68.7c0-0.85-0.04-1.2-0.52-1.2c-0.39,0-0.8,0.24-1.16,0.81v5.17h-0.99V68.7
					c0-0.85-0.04-1.2-0.52-1.2c-0.42,0-0.8,0.24-1.16,0.81v5.17h-0.97v-6.65h0.82l0.06,0.77c0.37-0.52,0.78-0.92,1.46-0.92
					c0.51,0,1,0.2,1.2,0.89c0.37-0.52,0.79-0.89,1.47-0.89C639.44,66.68,640.1,66.99,640.1,68.52z"/>
				<path class="st2" d="M642.84,70.52c0.05,1.56,0.92,2.23,1.95,2.23c0.61,0,1.2-0.15,1.78-0.62l0.49,0.72
					c-0.62,0.48-1.46,0.77-2.28,0.77c-1.95,0-3.05-1.39-3.05-3.47c0-2.01,1.14-3.48,2.86-3.48c1.72,0,2.75,1.25,2.75,3.28
					c0,0.23-0.01,0.43-0.03,0.57H642.84z M642.84,69.71h3.49c-0.03-1.43-0.67-2.16-1.72-2.16
					C643.67,67.55,642.93,68.24,642.84,69.71z"/>
				<path class="st2" d="M650.51,66.83l0.08,0.92c0.54-0.68,1.42-1.08,2.2-1.08c1.3,0,1.87,0.73,1.87,1.97v4.83h-1.05v-4.05
					c0-1.37-0.13-1.92-1.14-1.92c-0.8,0-1.47,0.59-1.81,1.11v4.86h-1.05v-6.65H650.51z"/>
				<path class="st2" d="M662.48,73.15c-0.46,0.29-1.16,0.47-1.78,0.47c-1.42,0-2.23-0.82-2.23-2v-3.98h-1.53v-0.81h1.53v-1.52
					l1.05-0.13v1.64h2.3l-0.13,0.81h-2.18v3.97c0,0.75,0.35,1.14,1.28,1.14c0.49,0,0.91-0.13,1.28-0.32L662.48,73.15z"/>
				<path class="st2" d="M668.72,71.7c0-0.61-0.2-0.94-1.61-1.29c-1.39-0.34-2.28-0.75-2.28-1.91c0-1.11,1.02-1.82,2.52-1.82
					c1.08,0,1.86,0.33,2.42,0.75l-0.47,0.71c-0.49-0.34-1.06-0.59-1.92-0.59c-1.06,0-1.46,0.37-1.46,0.87
					c0,0.61,0.42,0.81,1.77,1.18c1.3,0.35,2.16,0.81,2.16,2.06c0,1.42-1.38,1.97-2.81,1.97c-1.2,0-2.02-0.4-2.59-0.9l0.59-0.68
					c0.52,0.43,1.23,0.72,2.01,0.72C668.09,72.76,668.72,72.34,668.72,71.7z"/>
				<path class="st2" d="M675.93,72.42c0,0.3-0.06,0.59-0.25,0.97l-1.02,2.35h-0.95l0.61-2.49c-0.25-0.19-0.42-0.51-0.42-0.83
					c0-0.56,0.44-1.01,1.01-1.01C675.49,71.41,675.93,71.86,675.93,72.42z"/>
				<path class="st2" d="M594.25,85.33c0,2.02-0.83,3.48-2.57,3.48c-0.72,0-1.32-0.25-1.76-0.76v3.17l-1.05,0.13v-9.34h0.89
					l0.09,0.92c0.49-0.68,1.19-1.08,2-1.08C593.62,81.86,594.25,83.24,594.25,85.33z M589.92,83.78v3.31
					c0.34,0.52,0.9,0.83,1.53,0.83c1.11,0,1.67-0.82,1.67-2.61c0-1.75-0.48-2.62-1.53-2.62C590.85,82.71,590.28,83.25,589.92,83.78z
					"/>
				<path class="st2" d="M600.39,86.88c0-0.61-0.2-0.94-1.61-1.29c-1.39-0.34-2.28-0.75-2.28-1.91c0-1.11,1.03-1.82,2.52-1.82
					c1.08,0,1.86,0.33,2.42,0.75l-0.47,0.71c-0.49-0.34-1.06-0.59-1.92-0.59c-1.06,0-1.46,0.37-1.46,0.87
					c0,0.61,0.42,0.81,1.77,1.18c1.3,0.35,2.16,0.81,2.16,2.06c0,1.42-1.38,1.97-2.81,1.97c-1.2,0-2.02-0.4-2.59-0.9l0.59-0.68
					c0.52,0.43,1.23,0.72,2.01,0.72C599.76,87.94,600.39,87.53,600.39,86.88z"/>
				<path class="st2" d="M604.88,85.71c0.05,1.56,0.92,2.23,1.95,2.23c0.61,0,1.2-0.15,1.78-0.62l0.49,0.72
					c-0.62,0.48-1.46,0.77-2.28,0.77c-1.95,0-3.05-1.39-3.05-3.47c0-2.01,1.14-3.48,2.86-3.48s2.75,1.25,2.75,3.28
					c0,0.23-0.01,0.43-0.03,0.57H604.88z M604.88,84.9h3.49c-0.03-1.43-0.67-2.16-1.72-2.16C605.7,82.73,604.97,83.43,604.88,84.9z"
					/>
				<path class="st2" d="M612.7,86.73c0,0.87,0.35,1.24,1.13,1.24c0.73,0,1.46-0.49,1.81-1.06v-4.9h1.05v6.65h-0.9l-0.09-0.9
					c-0.52,0.67-1.35,1.04-2.12,1.04c-1.29,0-1.92-0.72-1.92-1.95v-4.84h1.05V86.73z"/>
				<path class="st2" d="M624.28,88.67h-0.92l-0.1-0.87c-0.49,0.7-1.15,1.01-1.88,1.01c-1.75,0-2.54-1.39-2.54-3.45
					c0-2.01,0.97-3.49,2.62-3.49c0.76,0,1.34,0.28,1.78,0.8v-3.47l1.05,0.13V88.67z M619.98,85.34c0,1.73,0.56,2.62,1.61,2.62
					c0.76,0,1.29-0.51,1.64-1.05v-3.34c-0.35-0.53-0.9-0.86-1.52-0.86C620.6,82.71,619.98,83.58,619.98,85.34z"/>
				<path class="st2" d="M632.21,85.33c0,2.04-1,3.48-2.86,3.48c-1.87,0-2.86-1.37-2.86-3.47c0-2.05,1-3.48,2.87-3.48
					S632.21,83.23,632.21,85.33z M627.62,85.34c0,1.77,0.58,2.61,1.73,2.61s1.73-0.83,1.73-2.62c0-1.77-0.58-2.61-1.72-2.61
					C628.22,82.72,627.62,83.56,627.62,85.34z"/>
				<path class="st2" d="M639.16,84.25v0.91h-4.43v-0.91H639.16z"/>
				<path class="st2" d="M642.84,85.71c0.05,1.56,0.92,2.23,1.95,2.23c0.61,0,1.2-0.15,1.78-0.62l0.49,0.72
					c-0.62,0.48-1.46,0.77-2.28,0.77c-1.95,0-3.05-1.39-3.05-3.47c0-2.01,1.14-3.48,2.86-3.48c1.72,0,2.75,1.25,2.75,3.28
					c0,0.23-0.01,0.43-0.03,0.57H642.84z M642.84,84.9h3.49c-0.03-1.43-0.67-2.16-1.72-2.16C643.67,82.73,642.93,83.43,642.84,84.9z
					"/>
				<path class="st2" d="M652.2,87.03c0,0.66,0.46,0.9,1.1,0.9c0.4,0,0.76-0.09,1.12-0.23l0.28,0.76c-0.35,0.19-0.9,0.34-1.58,0.34
					c-1.16,0-1.97-0.68-1.97-1.83v-6.82h-2.05v-0.83h3.1V87.03z"/>
				<path class="st2" d="M658.03,85.71c0.05,1.56,0.92,2.23,1.95,2.23c0.61,0,1.2-0.15,1.78-0.62l0.49,0.72
					c-0.62,0.48-1.46,0.77-2.28,0.77c-1.95,0-3.05-1.39-3.05-3.47c0-2.01,1.14-3.48,2.86-3.48c1.72,0,2.75,1.25,2.75,3.28
					c0,0.23-0.01,0.43-0.03,0.57H658.03z M658.03,84.9h3.49c-0.03-1.43-0.67-2.16-1.72-2.16C658.85,82.73,658.12,83.43,658.03,84.9z
					"/>
				<path class="st2" d="M670.47,83.71v4.96h-0.97v-4.78c0-0.85-0.04-1.2-0.52-1.2c-0.39,0-0.8,0.24-1.16,0.81v5.17h-0.99v-4.78
					c0-0.85-0.04-1.2-0.52-1.2c-0.42,0-0.8,0.24-1.16,0.81v5.17h-0.97v-6.65h0.82l0.06,0.77c0.37-0.52,0.78-0.92,1.46-0.92
					c0.51,0,1,0.2,1.2,0.89c0.37-0.52,0.79-0.89,1.47-0.89C669.81,81.86,670.47,82.18,670.47,83.71z"/>
				<path class="st2" d="M673.21,85.71c0.05,1.56,0.92,2.23,1.95,2.23c0.61,0,1.2-0.15,1.78-0.62l0.49,0.72
					c-0.62,0.48-1.46,0.77-2.28,0.77c-1.95,0-3.05-1.39-3.05-3.47c0-2.01,1.14-3.48,2.86-3.48c1.72,0,2.75,1.25,2.75,3.28
					c0,0.23-0.01,0.43-0.03,0.57H673.21z M673.21,84.9h3.49c-0.03-1.43-0.67-2.16-1.72-2.16C674.04,82.73,673.3,83.43,673.21,84.9z"
					/>
				<path class="st2" d="M680.88,82.01l0.08,0.92c0.54-0.68,1.42-1.08,2.2-1.08c1.3,0,1.87,0.73,1.87,1.97v4.83h-1.05v-4.05
					c0-1.37-0.13-1.92-1.14-1.92c-0.8,0-1.47,0.59-1.81,1.11v4.86h-1.05v-6.65H680.88z"/>
				<path class="st2" d="M692.85,88.34c-0.46,0.29-1.16,0.47-1.78,0.47c-1.42,0-2.23-0.82-2.23-2v-3.98h-1.53v-0.81h1.53v-1.52
					l1.05-0.13v1.64h2.3l-0.13,0.81h-2.18v3.97c0,0.75,0.35,1.14,1.28,1.14c0.49,0,0.91-0.13,1.28-0.32L692.85,88.34z"/>
				<path class="st2" d="M699.09,86.88c0-0.61-0.2-0.94-1.61-1.29c-1.39-0.34-2.28-0.75-2.28-1.91c0-1.11,1.02-1.82,2.52-1.82
					c1.08,0,1.86,0.33,2.42,0.75l-0.47,0.71c-0.49-0.34-1.06-0.59-1.92-0.59c-1.06,0-1.46,0.37-1.46,0.87
					c0,0.61,0.42,0.81,1.77,1.18c1.3,0.35,2.16,0.81,2.16,2.06c0,1.42-1.38,1.97-2.81,1.97c-1.2,0-2.02-0.4-2.59-0.9l0.59-0.68
					c0.52,0.43,1.23,0.72,2.01,0.72C698.46,87.94,699.09,87.53,699.09,86.88z"/>
			</g>
		</g>
	</g>
	<g>
		<g>
			<path class="st2" d="M589.44,320.44v12.28h6.53l-0.35,2.81h-9.75v-15.09H589.44z"/>
			<path class="st2" d="M609.05,329.72c0,3.88-2.07,6.18-5.62,6.18c-3.55,0-5.62-2.26-5.62-6.16c0-3.68,2.07-6.16,5.62-6.16
				C607.01,323.58,609.05,326.01,609.05,329.72z M601.37,329.74c0,2.57,0.65,3.64,2.07,3.64s2.07-1.07,2.07-3.66
				c0-2.5-0.65-3.59-2.07-3.59S601.37,327.21,601.37,329.74z"/>
			<path class="st2" d="M616.57,328.15h-0.09l-1,7.38h-3.72l-1.72-11.56h3.16l0.7,9.06h0.09l1.2-7.6h2.87l1.04,7.56h0.09l0.74-9.01
				h3.05l-1.66,11.56h-3.79L616.57,328.15z"/>
			<path class="st2" d="M627.54,330.76c0.24,1.89,1.31,2.63,2.79,2.63c1.04,0,2.05-0.37,2.9-1.04l1.44,1.96
				c-1.09,0.94-2.66,1.59-4.62,1.59c-3.96,0-6.01-2.55-6.01-6.14c0-3.42,2-6.18,5.6-6.18c3.35,0,5.47,2.22,5.47,5.94
				c0,0.39-0.02,0.89-0.07,1.24H627.54z M627.5,328.67h4.25c-0.02-1.68-0.59-2.79-2.07-2.79
				C628.43,325.88,627.65,326.75,627.5,328.67z"/>
			<path class="st2" d="M644.17,332.35c0-0.74-0.44-1.02-2.74-1.66c-2.11-0.57-3.57-1.48-3.57-3.53c0-2.07,1.76-3.59,5.01-3.59
				c2.05,0,3.55,0.59,4.68,1.42l-1.37,2.03c-0.96-0.59-2.09-0.98-3.2-0.98c-1.13,0-1.66,0.28-1.66,0.89c0,0.59,0.46,0.85,2.72,1.5
				c2.24,0.63,3.7,1.39,3.7,3.64c0,2.55-2.53,3.83-5.46,3.83c-2.24,0-3.94-0.7-5.14-1.74l1.72-1.94c0.89,0.7,2.05,1.22,3.4,1.22
				C643.41,333.44,644.17,333.09,644.17,332.35z"/>
			<path class="st2" d="M661.09,334.85c-0.91,0.59-2.2,1.04-3.79,1.04c-3.03,0-4.46-1.66-4.46-4.31v-5.25h-2.42v-2.37h2.42v-2.5
				l3.44-0.41v2.92H660l-0.35,2.37h-3.38v5.25c0,1.15,0.5,1.59,1.63,1.59c0.83,0,1.5-0.22,2.05-0.52L661.09,334.85z"/>
		</g>
	</g>
</g>
</svg>
